Renner-300-LightItalic.ufo
<glyph name="quotesingle" format="1">
  <advance width="260"/>
  <unicode hex="0027"/>
  <outline>
    <contour>
      <point x="257" y="700" type="line"/>
      <point x="319" y="700" type="line"/>
      <point x="192" y="408" type="line"/>
      <point x="156" y="408" type="line"/>
    </contour>
  </outline>
</glyph>
<glyph name="slash" format="1">
  <advance width="499"/>
  <unicode hex="002F"/>
  <outline>
    <contour>
      <point x="554" y="700" type="line"/>
      <point x="607" y="700" type="line"/>
      <point x="42" y="-150" type="line"/>
      <point x="-11" y="-150" type="line"/>
    </contour>
  </outline>
</glyph>
<glyph name="four" format="1">
  <advance width="571"/>
  <unicode hex="0034"/>
  <outline>
    <contour>
      <point x="47" y="140" type="line"/>
      <point x="101" y="189" type="line"/>
      <point x="430" y="189" type="line" smooth="yes"/>
      <point x="441" y="189" type="line" smooth="yes"/>
      <point x="572" y="189" type="line"/>
      <point x="564" y="140" type="line"/>
    </contour>
    <contour>
      <point x="106" y="140" type="line"/>
      <point x="47" y="140" type="line"/>
      <point x="531" y="700" type="line"/>
      <point x="552" y="700" type="line"/>
      <point x="429" y="0" type="line"/>
      <point x="374" y="0" type="line"/>
      <point x="403" y="162" type="line" smooth="yes"/>
      <point x="404" y="171" type="line" smooth="yes"/>
      <point x="475" y="573" type="line"/>
    </contour>
  </outline>
</glyph>
<glyph name="eight" format="1">
  <advance width="534"/>
  <unicode hex="0038"/>
  <outline>
    <contour>
      <point x="176" y="535" type="curve" smooth="yes"/>
      <point x="193" y="630"/>
      <point x="286" y="710"/>
      <point x="392" y="710" type="curve" smooth="yes"/>
      <point x="498" y="710"/>
      <point x="563" y="630"/>
      <point x="546" y="535" type="curve" smooth="yes"/>
      <point x="527" y="430"/>
      <point x="433" y="360"/>
      <point x="330" y="360" type="curve" smooth="yes"/>
      <point x="227" y="360"/>
      <point x="157" y="430"/>
    </contour>
    <contour>
      <point x="228" y="529" type="curve" smooth="yes"/>
      <point x="214" y="451"/>
      <point x="273" y="396"/>
      <point x="337" y="396" type="curve" smooth="yes"/>
      <point x="401" y="396"/>
      <point x="478" y="451"/>
      <point x="492" y="529" type="curve" smooth="yes"/>
      <point x="505" y="603"/>
      <point x="461" y="661"/>
      <point x="384" y="661" type="curve" smooth="yes"/>
      <point x="307" y="661"/>
      <point x="241" y="603"/>
    </contour>
    <contour>
      <point x="92" y="188" type="curve" smooth="yes"/>
      <point x="113" y="309"/>
      <point x="226" y="383"/>
      <point x="335" y="383" type="curve" smooth="yes"/>
      <point x="444" y="383"/>
      <point x="529" y="309"/>
      <point x="508" y="188" type="curve" smooth="yes"/>
      <point x="489" y="79"/>
      <point x="390" y="-10"/>
      <point x="265" y="-10" type="curve" smooth="yes"/>
      <point x="140" y="-10"/>
      <point x="73" y="79"/>
    </contour>
    <contour>
      <point x="146" y="194" type="curve" smooth="yes"/>
      <point x="129" y="100"/>
      <point x="186" y="39"/>
      <point x="274" y="39" type="curve" smooth="yes"/>
      <point x="362" y="39"/>
      <point x="439" y="100"/>
      <point x="456" y="194" type="curve" smooth="yes"/>
      <point x="472" y="282"/>
      <point x="406" y="347"/>
      <point x="328" y="347" type="curve" smooth="yes"/>
      <point x="250" y="347"/>
      <point x="162" y="282"/>
    </contour>
  </outline>
</glyph>
<glyph name="equal" format="1">
  <advance width="615"/>
  <unicode hex="003D"/>
  <outline>
    <contour>
      <point x="93" y="158" type="line"/>
      <point x="102" y="207" type="line"/>
      <point x="586" y="207" type="line"/>
      <point x="578" y="158" type="line"/>
    </contour>
    <contour>
      <point x="118" y="298" type="line"/>
      <point x="126" y="347" type="line"/>
      <point x="611" y="347" type="line"/>
      <point x="603" y="298" type="line"/>
    </contour>
  </outline>
</glyph>
<glyph name="at" format="1">
  <advance width="770"/>
  <unicode hex="0040"/>
  <outline>
    <contour>
      <point x="302" y="320" type="curve" smooth="yes"/>
      <point x="290" y="252"/>
      <point x="320" y="208"/>
      <point x="381" y="208" type="curve" smooth="yes"/>
      <point x="445" y="208"/>
      <point x="521" y="264"/>
      <point x="540" y="370" type="curve" smooth="yes"/>
      <point x="551" y="434"/>
      <point x="521" y="483"/>
      <point x="463" y="483" type="curve" smooth="yes"/>
      <point x="398" y="483"/>
      <point x="320" y="424"/>
    </contour>
    <contour>
      <point x="252" y="318" type="curve" smooth="yes"/>
      <point x="277" y="457"/>
      <point x="386" y="529"/>
      <point x="471" y="529" type="curve" smooth="yes"/>
      <point x="552" y="529"/>
      <point x="586" y="452"/>
      <point x="571" y="369" type="curve" smooth="yes"/>
      <point x="549" y="242"/>
      <point x="452" y="161"/>
      <point x="361" y="161" type="curve" smooth="yes"/>
      <point x="287" y="161"/>
      <point x="235" y="219"/>
    </contour>
    <contour>
      <point x="91" y="320" type="curve" smooth="yes"/>
      <point x="130" y="539"/>
      <point x="316" y="709"/>
      <point x="540" y="709" type="curve" smooth="yes"/>
      <point x="750" y="709"/>
      <point x="832" y="549"/>
      <point x="804" y="390" type="curve" smooth="yes"/>
      <point x="774" y="220"/>
      <point x="658" y="151"/>
      <point x="583" y="151" type="curve" smooth="yes"/>
      <point x="522" y="151"/>
      <point x="496" y="204"/>
      <point x="521" y="278" type="curve"/>
      <point x="516" y="278" type="line"/>
      <point x="597" y="520" type="line"/>
      <point x="647" y="520" type="line"/>
      <point x="565" y="289" type="line" smooth="yes"/>
      <point x="563" y="282"/>
      <point x="559" y="267"/>
      <point x="558" y="259" type="curve" smooth="yes"/>
      <point x="553" y="231"/>
      <point x="553" y="195"/>
      <point x="596" y="195" type="curve" smooth="yes"/>
      <point x="643" y="195"/>
      <point x="734" y="256"/>
      <point x="758" y="390" type="curve" smooth="yes"/>
      <point x="783" y="531"/>
      <point x="712" y="666"/>
      <point x="532" y="666" type="curve" smooth="yes"/>
      <point x="332" y="666"/>
      <point x="172" y="516"/>
      <point x="137" y="320" type="curve" smooth="yes"/>
      <point x="106" y="145"/>
      <point x="194" y="34"/>
      <point x="367" y="34" type="curve" smooth="yes"/>
      <point x="463" y="34"/>
      <point x="526" y="57"/>
      <point x="595" y="94" type="curve"/>
      <point x="612" y="55" type="line"/>
      <point x="546" y="22"/>
      <point x="483" y="-9"/>
      <point x="359" y="-9" type="curve" smooth="yes"/>
      <point x="149" y="-9"/>
      <point x="56" y="121"/>
    </contour>
  </outline>
</glyph>
<glyph name="E" format="1">
  <advance width="534"/>
  <unicode hex="0045"/>
  <outline>
    <contour>
      <point x="113" y="0" type="line"/>
      <point x="122" y="52" type="line"/>
      <point x="469" y="52" type="line"/>
      <point x="460" y="0" type="line"/>
    </contour>
    <contour>
      <point x="227" y="648" type="line"/>
      <point x="236" y="700" type="line"/>
      <point x="583" y="700" type="line"/>
      <point x="574" y="648" type="line"/>
    </contour>
    <contour>
      <point x="176" y="358" type="line"/>
      <point x="185" y="410" type="line"/>
      <point x="512" y="410" type="line"/>
      <point x="503" y="358" type="line"/>
    </contour>
    <contour>
      <point x="207" y="700" type="line"/>
      <point x="262" y="700" type="line"/>
      <point x="139" y="0" type="line"/>
      <point x="84" y="0" type="line"/>
    </contour>
  </outline>
</glyph>
<glyph name="i" format="1">
  <advance width="232"/>
  <unicode hex="0069"/>
  <outline>
    <contour>
      <point x="197" y="668" type="curve" smooth="yes"/>
      <point x="201" y="688"/>
      <point x="219" y="705"/>
      <point x="240" y="705" type="curve" smooth="yes"/>
      <point x="261" y="705"/>
      <point x="275" y="688"/>
      <point x="271" y="668" type="curve" smooth="yes"/>
      <point x="267" y="648"/>
      <point x="248" y="631"/>
      <point x="227" y="631" type="curve" smooth="yes"/>
      <point x="206" y="631"/>
      <point x="193" y="648"/>
    </contour>
    <contour>
      <point x="171" y="460" type="line"/>
      <point x="223" y="460" type="line"/>
      <point x="142" y="0" type="line"/>
      <point x="90" y="0" type="line"/>
    </contour>
  </outline>
</glyph>
<glyph name="j" format="1">
  <advance width="222"/>
  <unicode hex="006A"/>
  <outline>
    <contour>
      <point x="187" y="668" type="curve" smooth="yes"/>
      <point x="191" y="688"/>
      <point x="209" y="705"/>
      <point x="230" y="705" type="curve" smooth="yes"/>
      <point x="251" y="705"/>
      <point x="265" y="688"/>
      <point x="261" y="668" type="curve" smooth="yes"/>
      <point x="257" y="648"/>
      <point x="238" y="631"/>
      <point x="217" y="631" type="curve" smooth="yes"/>
      <point x="196" y="631"/>
      <point x="183" y="648"/>
    </contour>
    <contour>
      <point x="-73" y="-134" type="line"/>
      <point x="-62" y="-156"/>
      <point x="-42" y="-168"/>
      <point x="-18" y="-168" type="curve" smooth="yes"/>
      <point x="32" y="-168"/>
      <point x="58" y="-125"/>
      <point x="69" y="-63" type="curve" smooth="yes"/>
      <point x="161" y="460" type="line"/>
      <point x="213" y="460" type="line"/>
      <point x="120" y="-69" type="line" smooth="yes"/>
      <point x="104" y="-162"/>
      <point x="54" y="-220"/>
      <point x="-30" y="-220" type="curve" smooth="yes"/>
      <point x="-73" y="-220"/>
      <point x="-98" y="-197"/>
      <point x="-109" y="-177" type="curve"/>
    </contour>
  </outline>
</glyph>
<glyph name="m" format="1">
  <advance width="744"/>
  <unicode hex="006D"/>
  <outline>
    <contour>
      <point x="398" y="296" type="line" smooth="yes"/>
      <point x="412" y="374"/>
      <point x="393" y="421"/>
      <point x="326" y="421" type="curve" smooth="yes"/>
      <point x="256" y="421"/>
      <point x="194" y="358"/>
      <point x="180" y="280" type="curve"/>
      <point x="162" y="280" type="line"/>
      <point x="181" y="389"/>
      <point x="260" y="470"/>
      <point x="347" y="470" type="curve" smooth="yes"/>
      <point x="434" y="470"/>
      <point x="470" y="409"/>
      <point x="451" y="302" type="curve" smooth="yes"/>
      <point x="398" y="0" type="line"/>
      <point x="346" y="0" type="line"/>
    </contour>
    <contour>
      <point x="212" y="460" type="line"/>
      <point x="131" y="0" type="line"/>
      <point x="79" y="0" type="line"/>
      <point x="160" y="460" type="line"/>
    </contour>
    <contour>
      <point x="718" y="302" type="curve" smooth="yes"/>
      <point x="665" y="0" type="line"/>
      <point x="613" y="0" type="line"/>
      <point x="665" y="296" type="line" smooth="yes"/>
      <point x="679" y="374"/>
      <point x="660" y="421"/>
      <point x="593" y="421" type="curve" smooth="yes"/>
      <point x="523" y="421"/>
      <point x="461" y="358"/>
      <point x="447" y="280" type="curve"/>
      <point x="420" y="280" type="line"/>
      <point x="439" y="389"/>
      <point x="527" y="470"/>
      <point x="614" y="470" type="curve" smooth="yes"/>
      <point x="701" y="470"/>
      <point x="737" y="409"/>
    </contour>
  </outline>
</glyph>
<glyph name="p" format="1">
  <advance width="558"/>
  <unicode hex="0070"/>
  <outline>
    <contour>
      <point x="87" y="-220" type="line"/>
      <point x="35" y="-220" type="line"/>
      <point x="155" y="460" type="line"/>
      <point x="207" y="460" type="line"/>
    </contour>
    <contour>
      <point x="560" y="230" type="curve" smooth="yes"/>
      <point x="534" y="82"/>
      <point x="418" y="-10"/>
      <point x="295" y="-10" type="curve" smooth="yes"/>
      <point x="177" y="-10"/>
      <point x="119" y="93"/>
      <point x="143" y="230" type="curve" smooth="yes"/>
      <point x="167" y="367"/>
      <point x="262" y="470"/>
      <point x="380" y="470" type="curve" smooth="yes"/>
      <point x="503" y="470"/>
      <point x="586" y="378"/>
    </contour>
    <contour>
      <point x="508" y="230" type="curve" smooth="yes"/>
      <point x="529" y="350"/>
      <point x="461" y="421"/>
      <point x="364" y="421" type="curve" smooth="yes"/>
      <point x="278" y="421"/>
      <point x="186" y="340"/>
      <point x="167" y="230" type="curve" smooth="yes"/>
      <point x="148" y="120"/>
      <point x="211" y="39"/>
      <point x="297" y="39" type="curve" smooth="yes"/>
      <point x="394" y="39"/>
      <point x="487" y="110"/>
    </contour>
  </outline>
</glyph>
<glyph name="t" format="1">
  <advance width="220"/>
  <unicode hex="0074"/>
  <outline>
    <contour>
      <point x="90" y="460" type="line"/>
      <point x="292" y="460" type="line"/>
      <point x="283" y="411" type="line"/>
      <point x="81" y="411" type="line"/>
    </contour>
    <contour>
      <point x="193" y="620" type="line"/>
      <point x="245" y="620" type="line"/>
      <point x="136" y="0" type="line"/>
      <point x="84" y="0" type="line"/>
    </contour>
  </outline>
</glyph>
<glyph name="v" format="1">
  <advance width="432"/>
  <unicode hex="0076"/>
  <outline>
    <contour>
      <point x="85" y="460" type="line"/>
      <point x="144" y="460" type="line"/>
      <point x="231" y="85" type="line"/>
      <point x="450" y="460" type="line"/>
      <point x="509" y="460" type="line"/>
      <point x="211" y="-27" type="line"/>
    </contour>
  </outline>
</glyph>
<glyph name="w" format="1">
  <advance width="656"/>
  <unicode hex="0077"/>
  <outline>
    <contour>
      <point x="670" y="460" type="line"/>
      <point x="728" y="460" type="line"/>
      <point x="463" y="-27" type="line"/>
      <point x="461" y="64" type="line"/>
    </contour>
    <contour>
      <point x="376" y="401" type="line"/>
      <point x="409" y="487" type="line"/>
      <point x="491" y="64" type="line"/>
      <point x="463" y="-27" type="line"/>
    </contour>
    <contour>
      <point x="409" y="487" type="line"/>
      <point x="412" y="401" type="line"/>
      <point x="183" y="-27" type="line"/>
      <point x="187" y="64" type="line"/>
    </contour>
    <contour>
      <point x="90" y="460" type="line"/>
      <point x="148" y="460" type="line"/>
      <point x="217" y="64" type="line"/>
      <point x="183" y="-27" type="line"/>
    </contour>
  </outline>
</glyph>
<glyph name="sterling" format="1">
  <advance width="580"/>
  <unicode hex="00A3"/>
  <outline>
    <contour>
      <point x="136" y="344" type="line"/>
      <point x="476" y="344" type="line"/>
      <point x="467" y="295" type="line"/>
      <point x="127" y="295" type="line"/>
    </contour>
    <contour>
      <point x="548" y="487" type="line"/>
      <point x="557" y="562"/>
      <point x="533" y="656"/>
      <point x="433" y="656" type="curve" smooth="yes"/>
      <point x="356" y="656"/>
      <point x="287" y="605"/>
      <point x="273" y="527" type="curve" smooth="yes"/>
      <point x="252" y="408"/>
      <point x="352" y="374"/>
      <point x="333" y="264" type="curve" smooth="yes"/>
      <point x="314" y="158"/>
      <point x="198" y="61"/>
      <point x="139" y="30" type="curve"/>
      <point x="143" y="52" type="line"/>
      <point x="518" y="52" type="line"/>
      <point x="509" y="0" type="line"/>
      <point x="76" y="0" type="line"/>
      <point x="184" y="102"/>
      <point x="262" y="167"/>
      <point x="278" y="255" type="curve" smooth="yes"/>
      <point x="295" y="352"/>
      <point x="194" y="394"/>
      <point x="217" y="526" type="curve" smooth="yes"/>
      <point x="236" y="633"/>
      <point x="327" y="710"/>
      <point x="442" y="710" type="curve" smooth="yes"/>
      <point x="575" y="710"/>
      <point x="607" y="584"/>
      <point x="598" y="504" type="curve"/>
    </contour>
  </outline>
</glyph>
<glyph name="dieresis" format="1">
  <advance width="450"/>
  <unicode hex="00A8"/>
  <outline>
    <contour>
      <point x="406" y="672" type="curve" smooth="yes"/>
      <point x="410" y="693"/>
      <point x="430" y="709"/>
      <point x="450" y="709" type="curve" smooth="yes"/>
      <point x="470" y="709"/>
      <point x="485" y="693"/>
      <point x="481" y="672" type="curve" smooth="yes"/>
      <point x="477" y="651"/>
      <point x="457" y="634"/>
      <point x="437" y="634" type="curve" smooth="yes"/>
      <point x="417" y="634"/>
      <point x="402" y="651"/>
    </contour>
    <contour>
      <point x="206" y="672" type="curve" smooth="yes"/>
      <point x="210" y="693"/>
      <point x="230" y="709"/>
      <point x="250" y="709" type="curve" smooth="yes"/>
      <point x="270" y="709"/>
      <point x="285" y="693"/>
      <point x="281" y="672" type="curve" smooth="yes"/>
      <point x="277" y="651"/>
      <point x="257" y="634"/>
      <point x="237" y="634" type="curve" smooth="yes"/>
      <point x="217" y="634"/>
      <point x="202" y="651"/>
    </contour>
  </outline>
</glyph>
<glyph name="guillemotleft" format="1">
  <advance width="500"/>
  <unicode hex="00AB"/>
  <outline>
    <contour>
      <point x="129" y="243" type="line"/>
      <point x="85" y="255" type="line"/>
      <point x="323" y="490" type="line"/>
      <point x="351" y="460" type="line"/>
    </contour>
    <contour>
      <point x="85" y="255" type="line"/>
      <point x="134" y="273" type="line"/>
      <point x="279" y="50" type="line"/>
      <point x="241" y="20" type="line"/>
    </contour>
    <contour>
      <point x="289" y="243" type="line"/>
      <point x="245" y="255" type="line"/>
      <point x="483" y="490" type="line"/>
      <point x="511" y="460" type="line"/>
    </contour>
    <contour>
      <point x="245" y="255" type="line"/>
      <point x="294" y="273" type="line"/>
      <point x="439" y="50" type="line"/>
      <point x="401" y="20" type="line"/>
    </contour>
  </outline>
</glyph>
<glyph name="uni00B3" format="1">
  <advance width="310"/>
  <unicode hex="00B3"/>
  <outline>
    <contour>
      <point x="228" y="491" type="curve"/>
      <point x="231" y="513" type="line"/>
      <point x="285" y="513"/>
      <point x="338" y="547"/>
      <point x="347" y="596" type="curve" smooth="yes"/>
      <point x="355" y="640"/>
      <point x="333" y="676"/>
      <point x="281" y="676" type="curve" smooth="yes"/>
      <point x="232" y="676"/>
      <point x="190" y="643"/>
      <point x="182" y="596" type="curve"/>
      <point x="150" y="596" type="line"/>
      <point x="161" y="661"/>
      <point x="217" y="706"/>
      <point x="286" y="706" type="curve" smooth="yes"/>
      <point x="358" y="706"/>
      <point x="390" y="653"/>
      <point x="380" y="596" type="curve" smooth="yes"/>
      <point x="369" y="535"/>
      <point x="302" y="491"/>
    </contour>
    <contour>
      <point x="207" y="274" type="curve" smooth="yes"/>
      <point x="126" y="274"/>
      <point x="85" y="326"/>
      <point x="96" y="391" type="curve"/>
      <point x="130" y="391" type="line"/>
      <point x="121" y="341"/>
      <point x="153" y="305"/>
      <point x="213" y="305" type="curve" smooth="yes"/>
      <point x="271" y="305"/>
      <point x="314" y="340"/>
      <point x="323" y="392" type="curve" smooth="yes"/>
      <point x="334" y="453"/>
      <point x="280" y="483"/>
      <point x="226" y="483" type="curve"/>
      <point x="230" y="505" type="line"/>
      <point x="304" y="505"/>
      <point x="370" y="470"/>
      <point x="356" y="389" type="curve" smooth="yes"/>
      <point x="344" y="320"/>
      <point x="282" y="274"/>
    </contour>
  </outline>
</glyph>
<glyph name="periodcentered" format="1">
  <advance width="276"/>
  <unicode hex="00B7"/>
  <outline>
    <contour>
      <point x="142" y="232" type="curve" smooth="yes"/>
      <point x="146" y="253"/>
      <point x="166" y="270"/>
      <point x="186" y="270" type="curve" smooth="yes"/>
      <point x="206" y="270"/>
      <point x="221" y="253"/>
      <point x="217" y="232" type="curve" smooth="yes"/>
      <point x="213" y="211"/>
      <point x="192" y="195"/>
      <point x="172" y="195" type="curve" smooth="yes"/>
      <point x="152" y="195"/>
      <point x="138" y="211"/>
    </contour>
  </outline>
</glyph>
<glyph name="Atilde" format="1">
  <advance width="636"/>
  <unicode hex="00C3"/>
  <outline>
    <contour>
      <point x="180" y="235" type="line"/>
      <point x="208" y="287" type="line"/>
      <point x="532" y="287" type="line"/>
      <point x="540" y="235" type="line"/>
    </contour>
    <contour>
      <point x="424" y="600" type="line"/>
      <point x="229" y="269" type="line"/>
      <point x="221" y="257" type="line"/>
      <point x="71" y="0" type="line"/>
      <point x="9" y="0" type="line"/>
      <point x="446" y="727" type="line"/>
      <point x="627" y="0" type="line"/>
      <point x="565" y="0" type="line"/>
      <point x="506" y="253" type="line"/>
      <point x="503" y="266" type="line"/>
    </contour>
    <contour>
      <point x="311" y="806" type="line"/>
      <point x="324" y="847"/>
      <point x="366" y="878"/>
      <point x="411" y="878" type="curve" smooth="yes"/>
      <point x="472" y="878"/>
      <point x="473" y="831"/>
      <point x="527" y="831" type="curve" smooth="yes"/>
      <point x="550" y="831"/>
      <point x="567" y="847"/>
      <point x="591" y="879" type="curve"/>
      <point x="617" y="852" type="line"/>
      <point x="594" y="815"/>
      <point x="558" y="787"/>
      <point x="516" y="787" type="curve" smooth="yes"/>
      <point x="461" y="787"/>
      <point x="448" y="834"/>
      <point x="403" y="834" type="curve" smooth="yes"/>
      <point x="362" y="834"/>
      <point x="345" y="802"/>
      <point x="342" y="783" type="curve"/>
    </contour>
  </outline>
</glyph>
<glyph name="Idieresis" format="1">
  <advance width="219"/>
  <unicode hex="00CF"/>
  <outline>
    <contour>
      <point x="205" y="700" type="line"/>
      <point x="260" y="700" type="line"/>
      <point x="137" y="0" type="line"/>
      <point x="82" y="0" type="line"/>
    </contour>
    <contour>
      <point x="304" y="815" type="curve" smooth="yes"/>
      <point x="308" y="836"/>
      <point x="327" y="852"/>
      <point x="347" y="852" type="curve" smooth="yes"/>
      <point x="367" y="852"/>
      <point x="383" y="836"/>
      <point x="379" y="815" type="curve" smooth="yes"/>
      <point x="375" y="794"/>
      <point x="354" y="777"/>
      <point x="334" y="777" type="curve" smooth="yes"/>
      <point x="314" y="777"/>
      <point x="300" y="794"/>
    </contour>
    <contour>
      <point x="128" y="815" type="curve" smooth="yes"/>
      <point x="132" y="836"/>
      <point x="151" y="852"/>
      <point x="171" y="852" type="curve" smooth="yes"/>
      <point x="191" y="852"/>
      <point x="207" y="836"/>
      <point x="203" y="815" type="curve" smooth="yes"/>
      <point x="199" y="794"/>
      <point x="178" y="777"/>
      <point x="158" y="777" type="curve" smooth="yes"/>
      <point x="138" y="777"/>
      <point x="124" y="794"/>
    </contour>
  </outline>
</glyph>
<glyph name="Eth" format="1">
  <advance width="680"/>
  <unicode hex="00D0"/>
  <outline>
    <contour>
      <point x="228" y="645" type="line"/>
      <point x="237" y="700" type="line"/>
      <point x="397" y="700" type="line" smooth="yes"/>
      <point x="601" y="700"/>
      <point x="717" y="559"/>
      <point x="680" y="350" type="curve"/>
      <point x="625" y="350" type="line"/>
      <point x="657" y="529"/>
      <point x="562" y="645"/>
      <point x="388" y="645" type="curve" smooth="yes"/>
    </contour>
    <contour>
      <point x="274" y="0" type="curve" smooth="yes"/>
      <point x="114" y="0" type="line"/>
      <point x="124" y="55" type="line"/>
      <point x="284" y="55" type="line" smooth="yes"/>
      <point x="458" y="55"/>
      <point x="593" y="171"/>
      <point x="625" y="350" type="curve"/>
      <point x="680" y="350" type="line"/>
      <point x="643" y="141"/>
      <point x="478" y="0"/>
    </contour>
    <contour>
      <point x="207" y="700" type="line"/>
      <point x="262" y="700" type="line"/>
      <point x="139" y="0" type="line"/>
      <point x="84" y="0" type="line"/>
    </contour>
    <contour>
      <point x="62" y="324" type="line"/>
      <point x="71" y="373" type="line"/>
      <point x="371" y="373" type="line"/>
      <point x="362" y="324" type="line"/>
    </contour>
  </outline>
</glyph>
<glyph name="Ntilde" format="1">
  <advance width="731"/>
  <unicode hex="00D1"/>
  <outline>
    <contour>
      <point x="187" y="634" type="line"/>
      <point x="196" y="727" type="line"/>
      <point x="659" y="64" type="line"/>
      <point x="650" y="-27" type="line"/>
    </contour>
    <contour>
      <point x="723" y="700" type="line"/>
      <point x="778" y="700" type="line"/>
      <point x="650" y="-27" type="line"/>
      <point x="609" y="52" type="line"/>
    </contour>
    <contour>
      <point x="196" y="727" type="line"/>
      <point x="237" y="646" type="line"/>
      <point x="123" y="0" type="line"/>
      <point x="68" y="0" type="line"/>
    </contour>
    <contour>
      <point x="360" y="786" type="line"/>
      <point x="373" y="827"/>
      <point x="414" y="858"/>
      <point x="459" y="858" type="curve" smooth="yes"/>
      <point x="520" y="858"/>
      <point x="521" y="811"/>
      <point x="575" y="811" type="curve" smooth="yes"/>
      <point x="598" y="811"/>
      <point x="615" y="827"/>
      <point x="639" y="859" type="curve"/>
      <point x="666" y="832" type="line"/>
      <point x="643" y="795"/>
      <point x="606" y="767"/>
      <point x="564" y="767" type="curve" smooth="yes"/>
      <point x="509" y="767"/>
      <point x="497" y="814"/>
      <point x="452" y="814" type="curve" smooth="yes"/>
      <point x="411" y="814"/>
      <point x="394" y="782"/>
      <point x="391" y="763" type="curve"/>
    </contour>
  </outline>
</glyph>
<glyph name="Otilde" format="1">
  <advance width="783"/>
  <unicode hex="00D5"/>
  <outline>
    <contour>
      <point x="164" y="350" type="curve" smooth="yes"/>
      <point x="133" y="175"/>
      <point x="232" y="46"/>
      <point x="400" y="46" type="curve" smooth="yes"/>
      <point x="568" y="46"/>
      <point x="712" y="175"/>
      <point x="743" y="350" type="curve" smooth="yes"/>
      <point x="774" y="525"/>
      <point x="675" y="654"/>
      <point x="507" y="654" type="curve" smooth="yes"/>
      <point x="339" y="654"/>
      <point x="195" y="525"/>
    </contour>
    <contour>
      <point x="106" y="350" type="curve" smooth="yes"/>
      <point x="142" y="556"/>
      <point x="317" y="709"/>
      <point x="517" y="709" type="curve" smooth="yes"/>
      <point x="717" y="709"/>
      <point x="838" y="556"/>
      <point x="802" y="350" type="curve" smooth="yes"/>
      <point x="766" y="144"/>
      <point x="590" y="-9"/>
      <point x="390" y="-9" type="curve" smooth="yes"/>
      <point x="190" y="-9"/>
      <point x="70" y="144"/>
    </contour>
    <contour>
      <point x="384" y="800" type="line"/>
      <point x="397" y="841"/>
      <point x="439" y="872"/>
      <point x="484" y="872" type="curve" smooth="yes"/>
      <point x="545" y="872"/>
      <point x="545" y="825"/>
      <point x="599" y="825" type="curve" smooth="yes"/>
      <point x="622" y="825"/>
      <point x="640" y="841"/>
      <point x="664" y="873" type="curve"/>
      <point x="690" y="846" type="line"/>
      <point x="667" y="809"/>
      <point x="631" y="781"/>
      <point x="589" y="781" type="curve" smooth="yes"/>
      <point x="534" y="781"/>
      <point x="521" y="828"/>
      <point x="476" y="828" type="curve" smooth="yes"/>
      <point x="435" y="828"/>
      <point x="418" y="796"/>
      <point x="415" y="777" type="curve"/>
    </contour>
  </outline>
</glyph>
<glyph name="Ugrave" format="1">
  <advance width="606"/>
  <unicode hex="00D9"/>
  <outline>
    <contour>
      <point x="202" y="700" type="line"/>
      <point x="257" y="700" type="line"/>
      <point x="174" y="226" type="line" smooth="yes"/>
      <point x="154" y="114"/>
      <point x="202" y="42"/>
      <point x="310" y="42" type="curve" smooth="yes"/>
      <point x="418" y="42"/>
      <point x="492" y="114"/>
      <point x="512" y="226" type="curve" smooth="yes"/>
      <point x="595" y="700" type="line"/>
      <point x="650" y="700" type="line"/>
      <point x="567" y="226" type="line" smooth="yes"/>
      <point x="542" y="87"/>
      <point x="442" y="-10"/>
      <point x="301" y="-10" type="curve" smooth="yes"/>
      <point x="160" y="-10"/>
      <point x="94" y="87"/>
      <point x="119" y="226" type="curve" smooth="yes"/>
    </contour>
    <contour>
      <point x="334" y="922" type="line"/>
      <point x="386" y="949" type="line"/>
      <point x="516" y="789" type="line"/>
      <point x="484" y="769" type="line"/>
    </contour>
  </outline>
</glyph>
<glyph name="Ucircumflex" format="1">
  <advance width="606"/>
  <unicode hex="00DB"/>
  <outline>
    <contour>
      <point x="202" y="700" type="line"/>
      <point x="257" y="700" type="line"/>
      <point x="174" y="226" type="line" smooth="yes"/>
      <point x="154" y="114"/>
      <point x="202" y="42"/>
      <point x="310" y="42" type="curve" smooth="yes"/>
      <point x="418" y="42"/>
      <point x="492" y="114"/>
      <point x="512" y="226" type="curve" smooth="yes"/>
      <point x="595" y="700" type="line"/>
      <point x="650" y="700" type="line"/>
      <point x="567" y="226" type="line" smooth="yes"/>
      <point x="542" y="87"/>
      <point x="442" y="-10"/>
      <point x="301" y="-10" type="curve" smooth="yes"/>
      <point x="160" y="-10"/>
      <point x="94" y="87"/>
      <point x="119" y="226" type="curve" smooth="yes"/>
    </contour>
    <contour>
      <point x="458" y="880" type="line"/>
      <point x="312" y="769" type="line"/>
      <point x="283" y="796" type="line"/>
      <point x="468" y="936" type="line"/>
      <point x="603" y="796" type="line"/>
      <point x="566" y="769" type="line"/>
    </contour>
  </outline>
</glyph>
<glyph name="Yacute" format="1">
  <advance width="539"/>
  <unicode hex="00DD"/>
  <outline>
    <contour>
      <point x="297" y="326" type="line"/>
      <point x="352" y="326" type="line"/>
      <point x="295" y="0" type="line"/>
      <point x="240" y="0" type="line"/>
    </contour>
    <contour>
      <point x="591" y="700" type="line"/>
      <point x="653" y="700" type="line"/>
      <point x="309" y="240" type="line"/>
      <point x="132" y="700" type="line"/>
      <point x="194" y="700" type="line"/>
      <point x="327" y="338" type="line"/>
    </contour>
    <contour>
      <point x="573" y="922" type="line"/>
      <point x="368" y="769" type="line"/>
      <point x="343" y="789" type="line"/>
      <point x="529" y="949" type="line"/>
    </contour>
  </outline>
</glyph>
<glyph name="germandbls" format="1">
  <advance width="554"/>
  <unicode hex="00DF"/>
  <outline>
    <contour>
      <point x="187" y="606" type="line"/>
      <point x="239" y="606" type="line"/>
      <point x="132" y="0" type="line"/>
      <point x="80" y="0" type="line"/>
    </contour>
    <contour>
      <point x="320" y="433" type="curve"/>
      <point x="327" y="469" type="line"/>
      <point x="437" y="469"/>
      <point x="508" y="520"/>
      <point x="522" y="600" type="curve" smooth="yes"/>
      <point x="536" y="678"/>
      <point x="506" y="741"/>
      <point x="400" y="741" type="curve" smooth="yes"/>
      <point x="324" y="741"/>
      <point x="254" y="690"/>
      <point x="239" y="606" type="curve"/>
      <point x="187" y="606" type="line"/>
      <point x="206" y="715"/>
      <point x="303" y="790"/>
      <point x="408" y="790" type="curve" smooth="yes"/>
      <point x="543" y="790"/>
      <point x="595" y="715"/>
      <point x="576" y="606" type="curve" smooth="yes"/>
      <point x="556" y="495"/>
      <point x="475" y="433"/>
    </contour>
    <contour>
      <point x="271" y="39" type="line"/>
      <point x="371" y="39"/>
      <point x="477" y="115"/>
      <point x="497" y="231" type="curve" smooth="yes"/>
      <point x="517" y="344"/>
      <point x="428" y="420"/>
      <point x="318" y="420" type="curve"/>
      <point x="324" y="456" type="line"/>
      <point x="479" y="456"/>
      <point x="573" y="360"/>
      <point x="549" y="225" type="curve" smooth="yes"/>
      <point x="524" y="86"/>
      <point x="397" y="-10"/>
      <point x="262" y="-10" type="curve"/>
    </contour>
  </outline>
</glyph>
<glyph name="ecircumflex" format="1">
  <advance width="517"/>
  <unicode hex="00EA"/>
  <outline>
    <contour>
      <point x="116" y="217" type="line"/>
      <point x="124" y="262" type="line"/>
      <point x="510" y="262" type="line"/>
      <point x="515" y="217" type="line"/>
    </contour>
    <contour>
      <point x="467" y="251" type="line" smooth="yes"/>
      <point x="484" y="350"/>
      <point x="435" y="424"/>
      <point x="339" y="424" type="curve" smooth="yes"/>
      <point x="248" y="424"/>
      <point x="156" y="358"/>
      <point x="137" y="249" type="curve"/>
      <point x="133" y="231" type="line"/>
      <point x="113" y="115"/>
      <point x="167" y="39"/>
      <point x="269" y="39" type="curve" smooth="yes"/>
      <point x="356" y="39"/>
      <point x="413" y="84"/>
      <point x="453" y="134" type="curve"/>
      <point x="490" y="107" type="line"/>
      <point x="439" y="46"/>
      <point x="375" y="-10"/>
      <point x="254" y="-10" type="curve" smooth="yes"/>
      <point x="129" y="-10"/>
      <point x="55" y="92"/>
      <point x="80" y="231" type="curve" smooth="yes"/>
      <point x="84" y="252"/>
      <point x="88" y="272"/>
      <point x="96" y="291" type="curve" smooth="yes"/>
      <point x="137" y="397"/>
      <point x="234" y="470"/>
      <point x="347" y="470" type="curve" smooth="yes"/>
      <point x="469" y="470"/>
      <point x="546" y="379"/>
      <point x="522" y="242" type="curve" smooth="yes"/>
      <point x="521" y="234"/>
      <point x="517" y="225"/>
      <point x="515" y="217" type="curve"/>
      <point x="464" y="230" type="line"/>
    </contour>
    <contour>
      <point x="378" y="649" type="line"/>
      <point x="232" y="538" type="line"/>
      <point x="204" y="565" type="line"/>
      <point x="388" y="705" type="line"/>
      <point x="524" y="565" type="line"/>
      <point x="486" y="538" type="line"/>
    </contour>
  </outline>
</glyph>
<glyph name="edieresis" format="1">
  <advance width="517"/>
  <unicode hex="00EB"/>
  <outline>
    <contour>
      <point x="116" y="217" type="line"/>
      <point x="124" y="262" type="line"/>
      <point x="510" y="262" type="line"/>
      <point x="515" y="217" type="line"/>
    </contour>
    <contour>
      <point x="467" y="251" type="line" smooth="yes"/>
      <point x="484" y="350"/>
      <point x="435" y="424"/>
      <point x="339" y="424" type="curve" smooth="yes"/>
      <point x="248" y="424"/>
      <point x="156" y="358"/>
      <point x="137" y="249" type="curve"/>
      <point x="133" y="231" type="line"/>
      <point x="113" y="115"/>
      <point x="167" y="39"/>
      <point x="269" y="39" type="curve" smooth="yes"/>
      <point x="356" y="39"/>
      <point x="413" y="84"/>
      <point x="453" y="134" type="curve"/>
      <point x="490" y="107" type="line"/>
      <point x="439" y="46"/>
      <point x="375" y="-10"/>
      <point x="254" y="-10" type="curve" smooth="yes"/>
      <point x="129" y="-10"/>
      <point x="55" y="92"/>
      <point x="80" y="231" type="curve" smooth="yes"/>
      <point x="84" y="252"/>
      <point x="88" y="272"/>
      <point x="96" y="291" type="curve" smooth="yes"/>
      <point x="137" y="397"/>
      <point x="234" y="470"/>
      <point x="347" y="470" type="curve" smooth="yes"/>
      <point x="469" y="470"/>
      <point x="546" y="379"/>
      <point x="522" y="242" type="curve" smooth="yes"/>
      <point x="521" y="234"/>
      <point x="517" y="225"/>
      <point x="515" y="217" type="curve"/>
      <point x="464" y="230" type="line"/>
    </contour>
    <contour>
      <point x="427" y="575" type="curve" smooth="yes"/>
      <point x="431" y="596"/>
      <point x="452" y="613"/>
      <point x="472" y="613" type="curve" smooth="yes"/>
      <point x="492" y="613"/>
      <point x="506" y="596"/>
      <point x="502" y="575" type="curve" smooth="yes"/>
      <point x="498" y="554"/>
      <point x="479" y="538"/>
      <point x="459" y="538" type="curve" smooth="yes"/>
      <point x="439" y="538"/>
      <point x="423" y="554"/>
    </contour>
    <contour>
      <point x="227" y="575" type="curve" smooth="yes"/>
      <point x="231" y="596"/>
      <point x="252" y="613"/>
      <point x="272" y="613" type="curve" smooth="yes"/>
      <point x="292" y="613"/>
      <point x="306" y="596"/>
      <point x="302" y="575" type="curve" smooth="yes"/>
      <point x="298" y="554"/>
      <point x="279" y="538"/>
      <point x="259" y="538" type="curve" smooth="yes"/>
      <point x="239" y="538"/>
      <point x="223" y="554"/>
    </contour>
  </outline>
</glyph>
<glyph name="yacute" format="1">
  <advance width="434"/>
  <unicode hex="00FD"/>
  <outline>
    <contour>
      <point x="511" y="460" type="line"/>
      <point x="91" y="-220" type="line"/>
      <point x="33" y="-220" type="line"/>
      <point x="198" y="47" type="line"/>
      <point x="85" y="460" type="line"/>
      <point x="147" y="460" type="line"/>
      <point x="245" y="68" type="line"/>
      <point x="221" y="70" type="line"/>
      <point x="453" y="460" type="line"/>
    </contour>
    <contour>
      <point x="480" y="695" type="line"/>
      <point x="276" y="542" type="line"/>
      <point x="250" y="562" type="line"/>
      <point x="436" y="722" type="line"/>
    </contour>
  </outline>
</glyph>
<glyph name="Amacron" format="1">
  <advance width="636"/>
  <unicode hex="0100"/>
  <outline>
    <contour>
      <point x="180" y="235" type="line"/>
      <point x="208" y="287" type="line"/>
      <point x="532" y="287" type="line"/>
      <point x="540" y="235" type="line"/>
    </contour>
    <contour>
      <point x="424" y="600" type="line"/>
      <point x="229" y="269" type="line"/>
      <point x="221" y="257" type="line"/>
      <point x="71" y="0" type="line"/>
      <point x="9" y="0" type="line"/>
      <point x="446" y="727" type="line"/>
      <point x="627" y="0" type="line"/>
      <point x="565" y="0" type="line"/>
      <point x="506" y="253" type="line"/>
      <point x="503" y="266" type="line"/>
    </contour>
    <contour>
      <point x="283" y="795" type="line"/>
      <point x="292" y="844" type="line"/>
      <point x="642" y="844" type="line"/>
      <point x="633" y="795" type="line"/>
    </contour>
  </outline>
</glyph>
<glyph name="Abreve" format="1">
  <advance width="636"/>
  <unicode hex="0102"/>
  <outline>
    <contour>
      <point x="180" y="235" type="line"/>
      <point x="208" y="287" type="line"/>
      <point x="532" y="287" type="line"/>
      <point x="540" y="235" type="line"/>
    </contour>
    <contour>
      <point x="424" y="600" type="line"/>
      <point x="229" y="269" type="line"/>
      <point x="221" y="257" type="line"/>
      <point x="71" y="0" type="line"/>
      <point x="9" y="0" type="line"/>
      <point x="446" y="727" type="line"/>
      <point x="627" y="0" type="line"/>
      <point x="565" y="0" type="line"/>
      <point x="506" y="253" type="line"/>
      <point x="503" y="266" type="line"/>
    </contour>
    <contour>
      <point x="324" y="931" type="curve"/>
      <point x="371" y="931" type="line"/>
      <point x="364" y="889"/>
      <point x="386" y="834"/>
      <point x="465" y="834" type="curve" smooth="yes"/>
      <point x="544" y="834"/>
      <point x="586" y="889"/>
      <point x="593" y="931" type="curve"/>
      <point x="640" y="931" type="line"/>
      <point x="628" y="862"/>
      <point x="562" y="791"/>
      <point x="457" y="791" type="curve" smooth="yes"/>
      <point x="352" y="791"/>
      <point x="312" y="862"/>
    </contour>
  </outline>
</glyph>
<glyph name="aogonek" format="1">
  <advance width="465"/>
  <unicode hex="0105"/>
  <outline>
    <contour>
      <point x="111" y="135" type="curve" smooth="yes"/>
      <point x="99" y="66"/>
      <point x="143" y="37"/>
      <point x="209" y="37" type="curve" smooth="yes"/>
      <point x="293" y="37"/>
      <point x="364" y="86"/>
      <point x="379" y="172" type="curve"/>
      <point x="386" y="142" type="line"/>
      <point x="370" y="53"/>
      <point x="286" y="-10"/>
      <point x="188" y="-10" type="curve" smooth="yes"/>
      <point x="101" y="-10"/>
      <point x="41" y="37"/>
      <point x="57" y="129" type="curve" smooth="yes"/>
      <point x="75" y="232"/>
      <point x="171" y="284"/>
      <point x="274" y="284" type="curve" smooth="yes"/>
      <point x="358" y="284"/>
      <point x="396" y="246"/>
      <point x="410" y="229" type="curve"/>
      <point x="405" y="197" type="line"/>
      <point x="373" y="225"/>
      <point x="331" y="243"/>
      <point x="269" y="243" type="curve" smooth="yes"/>
      <point x="187" y="243"/>
      <point x="123" y="205"/>
    </contour>
    <contour>
      <point x="165" y="369" type="curve"/>
      <point x="146" y="409" type="line"/>
      <point x="185" y="436"/>
      <point x="246" y="470"/>
      <point x="325" y="470" type="curve" smooth="yes"/>
      <point x="424" y="470"/>
      <point x="474" y="415"/>
      <point x="458" y="326" type="curve" smooth="yes"/>
      <point x="401" y="0" type="line"/>
      <point x="349" y="0" type="line"/>
      <point x="406" y="326" type="line" smooth="yes"/>
      <point x="417" y="388"/>
      <point x="380" y="424"/>
      <point x="317" y="424" type="curve" smooth="yes"/>
      <point x="251" y="424"/>
      <point x="197" y="393"/>
    </contour>
    <contour>
      <point x="392" y="-147" type="curve"/>
      <point x="408" y="-180" type="line"/>
      <point x="389" y="-200"/>
      <point x="352" y="-220"/>
      <point x="309" y="-220" type="curve" smooth="yes"/>
      <point x="233" y="-220"/>
      <point x="200" y="-183"/>
      <point x="210" y="-128" type="curve"/>
      <point x="265" y="-116" type="line"/>
      <point x="258" y="-156"/>
      <point x="282" y="-174"/>
      <point x="320" y="-174" type="curve" smooth="yes"/>
      <point x="352" y="-174"/>
      <point x="375" y="-162"/>
    </contour>
    <contour>
      <point x="265" y="-116" type="curve"/>
      <point x="210" y="-128" type="line"/>
      <point x="221" y="-65"/>
      <point x="301" y="-17"/>
      <point x="377" y="19" type="curve"/>
      <point x="401" y="0" type="line"/>
      <point x="338" y="-26"/>
      <point x="273" y="-71"/>
    </contour>
  </outline>
</glyph>
<glyph name="cacute" format="1">
  <advance width="482"/>
  <unicode hex="0107"/>
  <outline>
    <contour>
      <point x="128" y="230" type="curve" smooth="yes"/>
      <point x="108" y="119"/>
      <point x="173" y="39"/>
      <point x="277" y="39" type="curve" smooth="yes"/>
      <point x="351" y="39"/>
      <point x="420" y="77"/>
      <point x="448" y="114" type="curve"/>
      <point x="437" y="49" type="line"/>
      <point x="403" y="16"/>
      <point x="335" y="-10"/>
      <point x="268" y="-10" type="curve" smooth="yes"/>
      <point x="134" y="-10"/>
      <point x="50" y="91"/>
      <point x="75" y="230" type="curve" smooth="yes"/>
      <point x="100" y="369"/>
      <point x="219" y="470"/>
      <point x="353" y="470" type="curve" smooth="yes"/>
      <point x="420" y="470"/>
      <point x="478" y="443"/>
      <point x="500" y="411" type="curve"/>
      <point x="489" y="346" type="line"/>
      <point x="475" y="383"/>
      <point x="418" y="421"/>
      <point x="344" y="421" type="curve" smooth="yes"/>
      <point x="240" y="421"/>
      <point x="148" y="341"/>
    </contour>
    <contour>
      <point x="527" y="687" type="line"/>
      <point x="323" y="534" type="line"/>
      <point x="298" y="554" type="line"/>
      <point x="484" y="714" type="line"/>
    </contour>
  </outline>
</glyph>
<glyph name="Cdotaccent" format="1">
  <advance width="685"/>
  <unicode hex="010A"/>
  <outline>
    <contour>
      <point x="165" y="350" type="curve" smooth="yes"/>
      <point x="134" y="172"/>
      <point x="236" y="47"/>
      <point x="394" y="47" type="curve" smooth="yes"/>
      <point x="493" y="47"/>
      <point x="572" y="83"/>
      <point x="636" y="143" type="curve"/>
      <point x="623" y="69" type="line"/>
      <point x="555" y="17"/>
      <point x="486" y="-9"/>
      <point x="384" y="-9" type="curve" smooth="yes"/>
      <point x="190" y="-9"/>
      <point x="69" y="141"/>
      <point x="106" y="350" type="curve" smooth="yes"/>
      <point x="143" y="559"/>
      <point x="317" y="709"/>
      <point x="511" y="709" type="curve" smooth="yes"/>
      <point x="613" y="709"/>
      <point x="672" y="683"/>
      <point x="722" y="631" type="curve"/>
      <point x="709" y="558" type="line"/>
      <point x="668" y="618"/>
      <point x="598" y="653"/>
      <point x="501" y="653" type="curve" smooth="yes"/>
      <point x="344" y="653"/>
      <point x="197" y="529"/>
    </contour>
    <contour>
      <point x="492" y="811" type="curve" smooth="yes"/>
      <point x="496" y="832"/>
      <point x="516" y="848"/>
      <point x="536" y="848" type="curve" smooth="yes"/>
      <point x="556" y="848"/>
      <point x="570" y="832"/>
      <point x="566" y="811" type="curve" smooth="yes"/>
      <point x="562" y="790"/>
      <point x="542" y="773"/>
      <point x="522" y="773" type="curve" smooth="yes"/>
      <point x="502" y="773"/>
      <point x="488" y="790"/>
    </contour>
  </outline>
</glyph>
<glyph name="Dcaron" format="1">
  <advance width="662"/>
  <unicode hex="010E"/>
  <outline>
    <contour>
      <point x="228" y="645" type="line"/>
      <point x="237" y="700" type="line"/>
      <point x="397" y="700" type="line" smooth="yes"/>
      <point x="601" y="700"/>
      <point x="717" y="559"/>
      <point x="680" y="350" type="curve"/>
      <point x="625" y="350" type="line"/>
      <point x="657" y="529"/>
      <point x="563" y="645"/>
      <point x="388" y="645" type="curve" smooth="yes"/>
    </contour>
    <contour>
      <point x="274" y="0" type="curve" smooth="yes"/>
      <point x="114" y="0" type="line"/>
      <point x="124" y="55" type="line"/>
      <point x="284" y="55" type="line" smooth="yes"/>
      <point x="459" y="55"/>
      <point x="593" y="171"/>
      <point x="625" y="350" type="curve"/>
      <point x="680" y="350" type="line"/>
      <point x="643" y="141"/>
      <point x="478" y="0"/>
    </contour>
    <contour>
      <point x="207" y="700" type="line"/>
      <point x="262" y="700" type="line"/>
      <point x="139" y="0" type="line"/>
      <point x="84" y="0" type="line"/>
    </contour>
    <contour>
      <point x="425" y="829" type="line"/>
      <point x="572" y="940" type="line"/>
      <point x="600" y="913" type="line"/>
      <point x="415" y="773" type="line"/>
      <point x="280" y="913" type="line"/>
      <point x="318" y="940" type="line"/>
    </contour>
  </outline>
</glyph>
<glyph name="uni0122" format="1">
  <advance width="771"/>
  <unicode hex="0122"/>
  <outline>
    <contour>
      <point x="463" y="297" type="line"/>
      <point x="473" y="349" type="line"/>
      <point x="784" y="349" type="line"/>
      <point x="737" y="297" type="line"/>
    </contour>
    <contour>
      <point x="784" y="349" type="line"/>
      <point x="750" y="159"/>
      <point x="597" y="-9"/>
      <point x="391" y="-9" type="curve" smooth="yes"/>
      <point x="191" y="-9"/>
      <point x="69" y="141"/>
      <point x="106" y="350" type="curve" smooth="yes"/>
      <point x="143" y="559"/>
      <point x="318" y="709"/>
      <point x="518" y="709" type="curve" smooth="yes"/>
      <point x="647" y="709"/>
      <point x="734" y="652"/>
      <point x="778" y="559" type="curve"/>
      <point x="731" y="524" type="line"/>
      <point x="699" y="602"/>
      <point x="621" y="654"/>
      <point x="508" y="654" type="curve" smooth="yes"/>
      <point x="343" y="654"/>
      <point x="196" y="529"/>
      <point x="164" y="350" type="curve" smooth="yes"/>
      <point x="133" y="172"/>
      <point x="235" y="46"/>
      <point x="401" y="46" type="curve" smooth="yes"/>
      <point x="577" y="46"/>
      <point x="700" y="189"/>
      <point x="727" y="343" type="curve"/>
    </contour>
    <contour>
      <point x="402" y="-69" type="line"/>
      <point x="451" y="-89" type="line"/>
      <point x="297" y="-339" type="line"/>
      <point x="262" y="-326" type="line"/>
    </contour>
  </outline>
</glyph>
<glyph name="hcircumflex" format="1">
  <advance width="505"/>
  <unicode hex="0125"/>
  <outline>
    <contour>
      <point x="269" y="780" type="line"/>
      <point x="131" y="0" type="line"/>
      <point x="79" y="0" type="line"/>
      <point x="217" y="780" type="line"/>
    </contour>
    <contour>
      <point x="426" y="296" type="line" smooth="yes"/>
      <point x="440" y="374"/>
      <point x="415" y="421"/>
      <point x="340" y="421" type="curve" smooth="yes"/>
      <point x="262" y="421"/>
      <point x="194" y="358"/>
      <point x="180" y="280" type="curve"/>
      <point x="156" y="280" type="line"/>
      <point x="175" y="389"/>
      <point x="266" y="470"/>
      <point x="361" y="470" type="curve" smooth="yes"/>
      <point x="456" y="470"/>
      <point x="498" y="409"/>
      <point x="479" y="302" type="curve" smooth="yes"/>
      <point x="426" y="0" type="line"/>
      <point x="374" y="0" type="line"/>
    </contour>
    <contour>
      <point x="280" y="951" type="line"/>
      <point x="133" y="840" type="line"/>
      <point x="105" y="867" type="line"/>
      <point x="290" y="1007" type="line"/>
      <point x="425" y="867" type="line"/>
      <point x="387" y="840" type="line"/>
    </contour>
  </outline>
</glyph>
<glyph name="Itilde" format="1">
  <advance width="219"/>
  <unicode hex="0128"/>
  <outline>
    <contour>
      <point x="205" y="700" type="line"/>
      <point x="260" y="700" type="line"/>
      <point x="137" y="0" type="line"/>
      <point x="82" y="0" type="line"/>
    </contour>
    <contour>
      <point x="109" y="817" type="line"/>
      <point x="122" y="858"/>
      <point x="164" y="889"/>
      <point x="209" y="889" type="curve" smooth="yes"/>
      <point x="270" y="889"/>
      <point x="270" y="842"/>
      <point x="324" y="842" type="curve" smooth="yes"/>
      <point x="347" y="842"/>
      <point x="365" y="858"/>
      <point x="389" y="890" type="curve"/>
      <point x="415" y="863" type="line"/>
      <point x="392" y="826"/>
      <point x="356" y="798"/>
      <point x="314" y="798" type="curve" smooth="yes"/>
      <point x="259" y="798"/>
      <point x="246" y="845"/>
      <point x="201" y="845" type="curve" smooth="yes"/>
      <point x="160" y="845"/>
      <point x="143" y="813"/>
      <point x="140" y="794" type="curve"/>
    </contour>
  </outline>
</glyph>
<glyph name="imacron" format="1">
  <advance width="232"/>
  <unicode hex="012B"/>
  <outline>
    <contour>
      <point x="171" y="460" type="line"/>
      <point x="223" y="460" type="line"/>
      <point x="142" y="0" type="line"/>
      <point x="90" y="0" type="line"/>
    </contour>
    <contour>
      <point x="53" y="556" type="line"/>
      <point x="62" y="605" type="line"/>
      <point x="412" y="605" type="line"/>
      <point x="403" y="556" type="line"/>
    </contour>
  </outline>
</glyph>
<glyph name="Iogonek" format="1">
  <advance width="219"/>
  <unicode hex="012E"/>
  <outline>
    <contour>
      <point x="205" y="700" type="line"/>
      <point x="260" y="700" type="line"/>
      <point x="137" y="0" type="line"/>
      <point x="82" y="0" type="line"/>
    </contour>
    <contour>
      <point x="125" y="-157" type="curve"/>
      <point x="142" y="-190" type="line"/>
      <point x="123" y="-210"/>
      <point x="86" y="-230"/>
      <point x="43" y="-230" type="curve" smooth="yes"/>
      <point x="-33" y="-230"/>
      <point x="-65" y="-193"/>
      <point x="-55" y="-138" type="curve"/>
      <point x="-1" y="-126" type="line"/>
      <point x="-8" y="-166"/>
      <point x="17" y="-184"/>
      <point x="55" y="-184" type="curve" smooth="yes"/>
      <point x="87" y="-184"/>
      <point x="108" y="-172"/>
    </contour>
    <contour>
      <point x="-1" y="-126" type="curve"/>
      <point x="-55" y="-138" type="line"/>
      <point x="-44" y="-75"/>
      <point x="35" y="-27"/>
      <point x="111" y="9" type="curve"/>
      <point x="134" y="-10" type="line"/>
      <point x="71" y="-36"/>
      <point x="7" y="-81"/>
    </contour>
  </outline>
</glyph>
<glyph name="Idotaccent" format="1">
  <advance width="219"/>
  <unicode hex="0130"/>
  <outline>
    <contour>
      <point x="205" y="700" type="line"/>
      <point x="260" y="700" type="line"/>
      <point x="137" y="0" type="line"/>
      <point x="82" y="0" type="line"/>
    </contour>
    <contour>
      <point x="215" y="809" type="curve" smooth="yes"/>
      <point x="219" y="830"/>
      <point x="238" y="847"/>
      <point x="258" y="847" type="curve" smooth="yes"/>
      <point x="278" y="847"/>
      <point x="294" y="830"/>
      <point x="290" y="809" type="curve" smooth="yes"/>
      <point x="286" y="788"/>
      <point x="265" y="772"/>
      <point x="245" y="772" type="curve" smooth="yes"/>
      <point x="225" y="772"/>
      <point x="211" y="788"/>
    </contour>
  </outline>
</glyph>
<glyph name="Jcircumflex" format="1">
  <advance width="222"/>
  <unicode hex="0134"/>
  <outline>
    <contour>
      <point x="-113" y="-126" type="line"/>
      <point x="-99" y="-149"/>
      <point x="-70" y="-168"/>
      <point x="-30" y="-168" type="curve" smooth="yes"/>
      <point x="24" y="-168"/>
      <point x="62" y="-136"/>
      <point x="77" y="-50" type="curve" smooth="yes"/>
      <point x="209" y="700" type="line"/>
      <point x="262" y="700" type="line"/>
      <point x="128" y="-60" type="line" smooth="yes"/>
      <point x="109" y="-169"/>
      <point x="53" y="-220"/>
      <point x="-41" y="-220" type="curve" smooth="yes"/>
      <point x="-94" y="-220"/>
      <point x="-139" y="-188"/>
      <point x="-150" y="-168" type="curve"/>
    </contour>
    <contour>
      <point x="278" y="894" type="line"/>
      <point x="131" y="783" type="line"/>
      <point x="103" y="810" type="line"/>
      <point x="288" y="950" type="line"/>
      <point x="423" y="810" type="line"/>
      <point x="385" y="783" type="line"/>
    </contour>
  </outline>
</glyph>
<glyph name="uni0137" format="1">
  <advance width="412"/>
  <unicode hex="0137"/>
  <outline>
    <contour>
      <point x="212" y="780" type="line"/>
      <point x="264" y="780" type="line"/>
      <point x="126" y="0" type="line"/>
      <point x="74" y="0" type="line"/>
    </contour>
    <contour>
      <point x="404" y="460" type="line"/>
      <point x="471" y="460" type="line"/>
      <point x="221" y="270" type="line"/>
      <point x="409" y="0" type="line"/>
      <point x="343" y="0" type="line"/>
      <point x="155" y="270" type="line"/>
    </contour>
    <contour>
      <point x="258" y="-66" type="line"/>
      <point x="307" y="-86" type="line"/>
      <point x="153" y="-336" type="line"/>
      <point x="118" y="-323" type="line"/>
    </contour>
  </outline>
</glyph>
<glyph name="kgreenlandic" format="1">
  <advance width="412"/>
  <unicode hex="0138"/>
  <outline>
    <contour>
      <point x="155" y="460" type="line"/>
      <point x="207" y="460" type="line"/>
      <point x="126" y="0" type="line"/>
      <point x="74" y="0" type="line"/>
    </contour>
    <contour>
      <point x="404" y="460" type="line"/>
      <point x="471" y="460" type="line"/>
      <point x="221" y="270" type="line"/>
      <point x="409" y="0" type="line"/>
      <point x="343" y="0" type="line"/>
      <point x="155" y="270" type="line"/>
    </contour>
  </outline>
</glyph>
<glyph name="ncaron" format="1">
  <advance width="505"/>
  <unicode hex="0148"/>
  <outline>
    <contour>
      <point x="212" y="460" type="line"/>
      <point x="131" y="0" type="line"/>
      <point x="79" y="0" type="line"/>
      <point x="160" y="460" type="line"/>
    </contour>
    <contour>
      <point x="426" y="296" type="line" smooth="yes"/>
      <point x="440" y="374"/>
      <point x="415" y="421"/>
      <point x="340" y="421" type="curve" smooth="yes"/>
      <point x="262" y="421"/>
      <point x="194" y="358"/>
      <point x="180" y="280" type="curve"/>
      <point x="156" y="280" type="line"/>
      <point x="175" y="389"/>
      <point x="266" y="470"/>
      <point x="361" y="470" type="curve" smooth="yes"/>
      <point x="456" y="470"/>
      <point x="498" y="409"/>
      <point x="479" y="302" type="curve" smooth="yes"/>
      <point x="426" y="0" type="line"/>
      <point x="374" y="0" type="line"/>
    </contour>
    <contour>
      <point x="355" y="586" type="line"/>
      <point x="502" y="697" type="line"/>
      <point x="530" y="670" type="line"/>
      <point x="345" y="530" type="line"/>
      <point x="210" y="670" type="line"/>
      <point x="249" y="697" type="line"/>
    </contour>
  </outline>
</glyph>
<glyph name="OE" format="1">
  <advance width="971"/>
  <unicode hex="0152"/>
  <outline>
    <contour>
      <point x="607" y="358" type="line"/>
      <point x="616" y="410" type="line"/>
      <point x="949" y="410" type="line"/>
      <point x="940" y="358" type="line"/>
    </contour>
    <contour>
      <point x="635" y="680" type="line"/>
      <point x="690" y="680" type="line"/>
      <point x="574" y="20" type="line"/>
      <point x="519" y="20" type="line"/>
    </contour>
    <contour>
      <point x="907" y="52" type="line"/>
      <point x="898" y="0" type="line"/>
      <point x="390" y="0" type="line" smooth="yes"/>
      <point x="187" y="0"/>
      <point x="65" y="141"/>
      <point x="102" y="350" type="curve" smooth="yes"/>
      <point x="139" y="559"/>
      <point x="309" y="700"/>
      <point x="513" y="700" type="curve" smooth="yes"/>
      <point x="1020" y="700" type="line"/>
      <point x="1011" y="648" type="line"/>
      <point x="664" y="648" type="line"/>
      <point x="647" y="648" type="line"/>
      <point x="504" y="648" type="line" smooth="yes"/>
      <point x="332" y="648"/>
      <point x="188" y="527"/>
      <point x="157" y="350" type="curve" smooth="yes"/>
      <point x="126" y="173"/>
      <point x="228" y="52"/>
      <point x="399" y="52" type="curve" smooth="yes"/>
      <point x="539" y="52" type="line"/>
      <point x="563" y="52" type="line"/>
    </contour>
  </outline>
</glyph>
<glyph name="rcaron" format="1">
  <advance width="321"/>
  <unicode hex="0159"/>
  <outline>
    <contour>
      <point x="212" y="460" type="line"/>
      <point x="131" y="0" type="line"/>
      <point x="79" y="0" type="line"/>
      <point x="160" y="460" type="line"/>
    </contour>
    <contour>
      <point x="354" y="399" type="line"/>
      <point x="336" y="413"/>
      <point x="322" y="421"/>
      <point x="298" y="421" type="curve" smooth="yes"/>
      <point x="230" y="421"/>
      <point x="194" y="358"/>
      <point x="180" y="280" type="curve"/>
      <point x="156" y="280" type="line"/>
      <point x="175" y="389"/>
      <point x="246" y="470"/>
      <point x="319" y="470" type="curve" smooth="yes"/>
      <point x="348" y="470"/>
      <point x="374" y="462"/>
      <point x="391" y="442" type="curve"/>
    </contour>
    <contour>
      <point x="299" y="586" type="line"/>
      <point x="445" y="697" type="line"/>
      <point x="474" y="670" type="line"/>
      <point x="289" y="530" type="line"/>
      <point x="154" y="670" type="line"/>
      <point x="192" y="697" type="line"/>
    </contour>
  </outline>
</glyph>
<glyph name="uni0237" format="1">
  <advance width="222"/>
  <unicode hex="0237"/>
  <outline>
    <contour>
      <point x="-73" y="-134" type="line"/>
      <point x="-62" y="-156"/>
      <point x="-42" y="-168"/>
      <point x="-18" y="-168" type="curve" smooth="yes"/>
      <point x="32" y="-168"/>
      <point x="58" y="-125"/>
      <point x="69" y="-63" type="curve" smooth="yes"/>
      <point x="161" y="460" type="line"/>
      <point x="213" y="460" type="line"/>
      <point x="120" y="-69" type="line" smooth="yes"/>
      <point x="104" y="-162"/>
      <point x="54" y="-220"/>
      <point x="-30" y="-220" type="curve" smooth="yes"/>
      <point x="-73" y="-220"/>
      <point x="-98" y="-197"/>
      <point x="-109" y="-177" type="curve"/>
    </contour>
  </outline>
</glyph>
<glyph name="ring" format="1">
  <advance width="278"/>
  <unicode hex="02DA"/>
  <outline>
    <contour>
      <point x="175" y="785" type="curve" smooth="yes"/>
      <point x="186" y="845"/>
      <point x="243" y="885"/>
      <point x="295" y="885" type="curve" smooth="yes"/>
      <point x="347" y="885"/>
      <point x="390" y="845"/>
      <point x="379" y="785" type="curve" smooth="yes"/>
      <point x="368" y="725"/>
      <point x="312" y="685"/>
      <point x="260" y="685" type="curve" smooth="yes"/>
      <point x="208" y="685"/>
      <point x="164" y="725"/>
    </contour>
    <contour>
      <point x="210" y="785" type="curve" smooth="yes"/>
      <point x="203" y="744"/>
      <point x="231" y="717"/>
      <point x="265" y="717" type="curve" smooth="yes"/>
      <point x="299" y="717"/>
      <point x="337" y="744"/>
      <point x="344" y="785" type="curve" smooth="yes"/>
      <point x="351" y="826"/>
      <point x="323" y="853"/>
      <point x="289" y="853" type="curve" smooth="yes"/>
      <point x="255" y="853"/>
      <point x="217" y="826"/>
    </contour>
  </outline>
</glyph>
<glyph name="uni2010" format="1">
  <advance width="210"/>
  <unicode hex="2010"/>
  <outline>
    <contour>
      <point x="45" y="226" type="line"/>
      <point x="53" y="275" type="line"/>
      <point x="253" y="275" type="line"/>
      <point x="245" y="226" type="line"/>
    </contour>
  </outline>
</glyph>
<glyph name="emdash" format="1">
  <advance width="890"/>
  <unicode hex="2014"/>
  <outline>
    <contour>
      <point x="110" y="226" type="line"/>
      <point x="118" y="275" type="line"/>
      <point x="868" y="275" type="line"/>
      <point x="860" y="226" type="line"/>
    </contour>
  </outline>
</glyph>
<glyph name="quotesinglbase" format="1">
  <advance width="263"/>
  <unicode hex="201A"/>
  <outline>
    <contour>
      <point x="147" y="80" type="line"/>
      <point x="209" y="80" type="line"/>
      <point x="71" y="-150" type="line"/>
      <point x="34" y="-150" type="line"/>
    </contour>
  </outline>
</glyph>
<glyph name="daggerdbl" format="1">
  <advance width="542"/>
  <unicode hex="2021"/>
  <outline>
    <contour>
      <point x="111" y="120" type="line"/>
      <point x="473" y="120" type="line"/>
      <point x="465" y="71" type="line"/>
      <point x="103" y="71" type="line"/>
    </contour>
    <contour>
      <point x="185" y="540" type="line"/>
      <point x="547" y="540" type="line"/>
      <point x="539" y="491" type="line"/>
      <point x="177" y="491" type="line"/>
    </contour>
    <contour>
      <point x="368" y="700" type="line"/>
      <point x="420" y="700" type="line"/>
      <point x="271" y="-150" type="line"/>
      <point x="219" y="-150" type="line"/>
    </contour>
  </outline>
</glyph>
<glyph name="ellipsis" format="1">
  <advance width="864"/>
  <unicode hex="2026"/>
  <outline>
    <contour>
      <point x="109" y="24" type="curve" smooth="yes"/>
      <point x="113" y="45"/>
      <point x="133" y="62"/>
      <point x="153" y="62" type="curve" smooth="yes"/>
      <point x="173" y="62"/>
      <point x="188" y="45"/>
      <point x="184" y="24" type="curve" smooth="yes"/>
      <point x="180" y="3"/>
      <point x="160" y="-13"/>
      <point x="140" y="-13" type="curve" smooth="yes"/>
      <point x="120" y="-13"/>
      <point x="105" y="3"/>
    </contour>
    <contour>
      <point x="399" y="24" type="curve" smooth="yes"/>
      <point x="403" y="45"/>
      <point x="423" y="62"/>
      <point x="443" y="62" type="curve" smooth="yes"/>
      <point x="463" y="62"/>
      <point x="478" y="45"/>
      <point x="474" y="24" type="curve" smooth="yes"/>
      <point x="470" y="3"/>
      <point x="450" y="-13"/>
      <point x="430" y="-13" type="curve" smooth="yes"/>
      <point x="410" y="-13"/>
      <point x="395" y="3"/>
    </contour>
    <contour>
      <point x="689" y="24" type="curve" smooth="yes"/>
      <point x="693" y="45"/>
      <point x="713" y="62"/>
      <point x="733" y="62" type="curve" smooth="yes"/>
      <point x="753" y="62"/>
      <point x="768" y="45"/>
      <point x="764" y="24" type="curve" smooth="yes"/>
      <point x="760" y="3"/>
      <point x="740" y="-13"/>
      <point x="720" y="-13" type="curve" smooth="yes"/>
      <point x="700" y="-13"/>
      <point x="685" y="3"/>
    </contour>
  </outline>
</glyph>
<glyph name="uni2075" format="1">
  <advance width="350"/>
  <unicode hex="2075"/>
  <outline>
    <contour>
      <point x="387" y="416" type="curve" smooth="yes"/>
      <point x="370" y="321"/>
      <point x="298" y="272"/>
      <point x="219" y="272" type="curve" smooth="yes"/>
      <point x="147" y="272"/>
      <point x="112" y="310"/>
      <point x="95" y="360" type="curve"/>
      <point x="127" y="379" type="line"/>
      <point x="139" y="336"/>
      <point x="171" y="303"/>
      <point x="224" y="303" type="curve" smooth="yes"/>
      <point x="289" y="303"/>
      <point x="339" y="345"/>
      <point x="352" y="416" type="curve" smooth="yes"/>
      <point x="363" y="480"/>
      <point x="328" y="523"/>
      <point x="270" y="523" type="curve" smooth="yes"/>
      <point x="225" y="523"/>
      <point x="192" y="509"/>
      <point x="148" y="474" type="curve"/>
      <point x="175" y="506" type="line"/>
      <point x="204" y="535"/>
      <point x="247" y="553"/>
      <point x="289" y="553" type="curve" smooth="yes"/>
      <point x="359" y="553"/>
      <point x="401" y="497"/>
    </contour>
    <contour>
      <point x="262" y="669" type="line"/>
      <point x="197" y="514" type="line"/>
      <point x="148" y="474" type="line"/>
      <point x="242" y="698" type="line"/>
      <point x="440" y="698" type="line"/>
      <point x="435" y="669" type="line"/>
    </contour>
  </outline>
</glyph>
<glyph name="uni2078" format="1">
  <advance width="314"/>
  <unicode hex="2078"/>
  <outline>
    <contour>
      <point x="152" y="601" type="curve" smooth="yes"/>
      <point x="162" y="658"/>
      <point x="217" y="706"/>
      <point x="281" y="706" type="curve" smooth="yes"/>
      <point x="345" y="706"/>
      <point x="384" y="658"/>
      <point x="374" y="601" type="curve" smooth="yes"/>
      <point x="363" y="538"/>
      <point x="306" y="496"/>
      <point x="244" y="496" type="curve" smooth="yes"/>
      <point x="182" y="496"/>
      <point x="141" y="538"/>
    </contour>
    <contour>
      <point x="183" y="598" type="curve" smooth="yes"/>
      <point x="175" y="551"/>
      <point x="210" y="518"/>
      <point x="248" y="518" type="curve" smooth="yes"/>
      <point x="286" y="518"/>
      <point x="333" y="551"/>
      <point x="341" y="598" type="curve" smooth="yes"/>
      <point x="349" y="643"/>
      <point x="322" y="677"/>
      <point x="276" y="677" type="curve" smooth="yes"/>
      <point x="230" y="677"/>
      <point x="191" y="643"/>
    </contour>
    <contour>
      <point x="101" y="393" type="curve" smooth="yes"/>
      <point x="114" y="465"/>
      <point x="182" y="510"/>
      <point x="247" y="510" type="curve" smooth="yes"/>
      <point x="312" y="510"/>
      <point x="364" y="465"/>
      <point x="351" y="393" type="curve" smooth="yes"/>
      <point x="340" y="328"/>
      <point x="280" y="274"/>
      <point x="205" y="274" type="curve" smooth="yes"/>
      <point x="130" y="274"/>
      <point x="90" y="328"/>
    </contour>
    <contour>
      <point x="134" y="396" type="curve" smooth="yes"/>
      <point x="124" y="339"/>
      <point x="157" y="303"/>
      <point x="210" y="303" type="curve" smooth="yes"/>
      <point x="263" y="303"/>
      <point x="310" y="339"/>
      <point x="320" y="396" type="curve" smooth="yes"/>
      <point x="329" y="449"/>
      <point x="290" y="488"/>
      <point x="243" y="488" type="curve" smooth="yes"/>
      <point x="196" y="488"/>
      <point x="143" y="449"/>
    </contour>
  </outline>
</glyph>
<glyph name="uni2150" format="1">
  <advance width="842"/>
  <unicode hex="2150"/>
  <outline>
    <contour>
      <point x="712" y="700" type="line"/>
      <point x="756" y="700" type="line"/>
      <point x="92" y="0" type="line"/>
      <point x="48" y="0" type="line"/>
    </contour>
    <contour>
      <point x="138" y="633" type="line"/>
      <point x="144" y="668" type="line"/>
      <point x="279" y="699" type="line"/>
      <point x="204" y="274" type="line"/>
      <point x="171" y="274" type="line"/>
      <point x="239" y="659" type="line"/>
    </contour>
    <contour>
      <point x="589" y="389" type="line"/>
      <point x="594" y="420" type="line"/>
      <point x="883" y="420" type="line"/>
      <point x="600" y="0" type="line"/>
      <point x="565" y="0" type="line"/>
      <point x="829" y="389" type="line"/>
    </contour>
  </outline>
</glyph>
<glyph name="twothirds" format="1">
  <advance width="882"/>
  <unicode hex="2154"/>
  <outline>
    <contour>
      <point x="839" y="700" type="line"/>
      <point x="883" y="700" type="line"/>
      <point x="219" y="0" type="line"/>
      <point x="175" y="0" type="line"/>
    </contour>
    <contour>
      <point x="81" y="282" type="line"/>
      <point x="313" y="490" type="line" smooth="yes"/>
      <point x="346" y="520"/>
      <point x="373" y="549"/>
      <point x="380" y="589" type="curve" smooth="yes"/>
      <point x="387" y="630"/>
      <point x="370" y="678"/>
      <point x="308" y="678" type="curve" smooth="yes"/>
      <point x="247" y="678"/>
      <point x="197" y="630"/>
      <point x="184" y="558" type="curve"/>
      <point x="151" y="558" type="line"/>
      <point x="167" y="647"/>
      <point x="231" y="709"/>
      <point x="313" y="709" type="curve" smooth="yes"/>
      <point x="400" y="709"/>
      <point x="424" y="641"/>
      <point x="414" y="587" type="curve" smooth="yes"/>
      <point x="406" y="542"/>
      <point x="374" y="504"/>
      <point x="336" y="471" type="curve" smooth="yes"/>
      <point x="155" y="313" type="line"/>
      <point x="373" y="313" type="line"/>
      <point x="368" y="282" type="line"/>
    </contour>
    <contour>
      <point x="743" y="211" type="curve"/>
      <point x="747" y="233" type="line"/>
      <point x="801" y="233"/>
      <point x="854" y="267"/>
      <point x="863" y="316" type="curve" smooth="yes"/>
      <point x="871" y="360"/>
      <point x="849" y="396"/>
      <point x="797" y="396" type="curve" smooth="yes"/>
      <point x="748" y="396"/>
      <point x="706" y="363"/>
      <point x="698" y="316" type="curve"/>
      <point x="666" y="316" type="line"/>
      <point x="677" y="381"/>
      <point x="733" y="426"/>
      <point x="802" y="426" type="curve" smooth="yes"/>
      <point x="874" y="426"/>
      <point x="906" y="373"/>
      <point x="896" y="316" type="curve" smooth="yes"/>
      <point x="885" y="255"/>
      <point x="817" y="211"/>
    </contour>
    <contour>
      <point x="723" y="-6" type="curve" smooth="yes"/>
      <point x="642" y="-6"/>
      <point x="601" y="46"/>
      <point x="612" y="111" type="curve"/>
      <point x="646" y="111" type="line"/>
      <point x="637" y="61"/>
      <point x="668" y="25"/>
      <point x="728" y="25" type="curve" smooth="yes"/>
      <point x="786" y="25"/>
      <point x="830" y="60"/>
      <point x="839" y="112" type="curve" smooth="yes"/>
      <point x="850" y="173"/>
      <point x="796" y="203"/>
      <point x="742" y="203" type="curve"/>
      <point x="746" y="225" type="line"/>
      <point x="820" y="225"/>
      <point x="885" y="190"/>
      <point x="871" y="109" type="curve" smooth="yes"/>
      <point x="859" y="40"/>
      <point x="798" y="-6"/>
    </contour>
  </outline>
</glyph>
<glyph name="uni2156" format="1">
  <advance width="871"/>
  <unicode hex="2156"/>
  <outline>
    <contour>
      <point x="839" y="700" type="line"/>
      <point x="883" y="700" type="line"/>
      <point x="219" y="0" type="line"/>
      <point x="175" y="0" type="line"/>
    </contour>
    <contour>
      <point x="81" y="282" type="line"/>
      <point x="313" y="490" type="line" smooth="yes"/>
      <point x="346" y="520"/>
      <point x="373" y="549"/>
      <point x="380" y="589" type="curve" smooth="yes"/>
      <point x="387" y="630"/>
      <point x="370" y="678"/>
      <point x="308" y="678" type="curve" smooth="yes"/>
      <point x="247" y="678"/>
      <point x="197" y="630"/>
      <point x="184" y="558" type="curve"/>
      <point x="151" y="558" type="line"/>
      <point x="167" y="647"/>
      <point x="231" y="709"/>
      <point x="313" y="709" type="curve" smooth="yes"/>
      <point x="400" y="709"/>
      <point x="424" y="641"/>
      <point x="414" y="587" type="curve" smooth="yes"/>
      <point x="406" y="542"/>
      <point x="374" y="504"/>
      <point x="336" y="471" type="curve" smooth="yes"/>
      <point x="155" y="313" type="line"/>
      <point x="373" y="313" type="line"/>
      <point x="368" y="282" type="line"/>
    </contour>
    <contour>
      <point x="853" y="136" type="curve" smooth="yes"/>
      <point x="836" y="41"/>
      <point x="764" y="-8"/>
      <point x="685" y="-8" type="curve" smooth="yes"/>
      <point x="613" y="-8"/>
      <point x="578" y="30"/>
      <point x="561" y="80" type="curve"/>
      <point x="592" y="99" type="line"/>
      <point x="604" y="56"/>
      <point x="637" y="23"/>
      <point x="690" y="23" type="curve" smooth="yes"/>
      <point x="755" y="23"/>
      <point x="805" y="65"/>
      <point x="818" y="136" type="curve" smooth="yes"/>
      <point x="829" y="200"/>
      <point x="794" y="243"/>
      <point x="736" y="243" type="curve" smooth="yes"/>
      <point x="691" y="243"/>
      <point x="657" y="229"/>
      <point x="613" y="194" type="curve"/>
      <point x="641" y="226" type="line"/>
      <point x="670" y="255"/>
      <point x="712" y="273"/>
      <point x="754" y="273" type="curve" smooth="yes"/>
      <point x="824" y="273"/>
      <point x="867" y="217"/>
    </contour>
    <contour>
      <point x="728" y="389" type="line"/>
      <point x="662" y="234" type="line"/>
      <point x="613" y="194" type="line"/>
      <point x="708" y="418" type="line"/>
      <point x="906" y="418" type="line"/>
      <point x="901" y="389" type="line"/>
    </contour>
  </outline>
</glyph>
<glyph name="uni2158" format="1">
  <advance width="866"/>
  <unicode hex="2158"/>
  <outline>
    <contour>
      <point x="834" y="700" type="line"/>
      <point x="878" y="700" type="line"/>
      <point x="214" y="0" type="line"/>
      <point x="170" y="0" type="line"/>
    </contour>
    <contour>
      <point x="96" y="364" type="line"/>
      <point x="129" y="393" type="line"/>
      <point x="326" y="393" type="line" smooth="yes"/>
      <point x="333" y="393" type="line" smooth="yes"/>
      <point x="411" y="393" type="line"/>
      <point x="406" y="364" type="line"/>
    </contour>
    <contour>
      <point x="131" y="364" type="line"/>
      <point x="96" y="364" type="line"/>
      <point x="387" y="700" type="line"/>
      <point x="400" y="700" type="line"/>
      <point x="326" y="280" type="line"/>
      <point x="292" y="280" type="line"/>
      <point x="310" y="378" type="line" smooth="yes"/>
      <point x="310" y="382" type="line" smooth="yes"/>
      <point x="353" y="624" type="line"/>
    </contour>
    <contour>
      <point x="848" y="136" type="curve" smooth="yes"/>
      <point x="831" y="41"/>
      <point x="759" y="-8"/>
      <point x="680" y="-8" type="curve" smooth="yes"/>
      <point x="608" y="-8"/>
      <point x="573" y="30"/>
      <point x="556" y="80" type="curve"/>
      <point x="587" y="99" type="line"/>
      <point x="599" y="56"/>
      <point x="632" y="23"/>
      <point x="685" y="23" type="curve" smooth="yes"/>
      <point x="750" y="23"/>
      <point x="800" y="65"/>
      <point x="813" y="136" type="curve" smooth="yes"/>
      <point x="824" y="200"/>
      <point x="789" y="243"/>
      <point x="731" y="243" type="curve" smooth="yes"/>
      <point x="686" y="243"/>
      <point x="652" y="229"/>
      <point x="608" y="194" type="curve"/>
      <point x="636" y="226" type="line"/>
      <point x="665" y="255"/>
      <point x="707" y="273"/>
      <point x="749" y="273" type="curve" smooth="yes"/>
      <point x="819" y="273"/>
      <point x="862" y="217"/>
    </contour>
    <contour>
      <point x="723" y="389" type="line"/>
      <point x="657" y="234" type="line"/>
      <point x="608" y="194" type="line"/>
      <point x="703" y="418" type="line"/>
      <point x="901" y="418" type="line"/>
      <point x="896" y="389" type="line"/>
    </contour>
  </outline>
</glyph>
<glyph name="uni2159" format="1">
  <advance width="734"/>
  <unicode hex="2159"/>
  <outline>
    <contour>
      <point x="712" y="700" type="line"/>
      <point x="756" y="700" type="line"/>
      <point x="92" y="0" type="line"/>
      <point x="48" y="0" type="line"/>
    </contour>
    <contour>
      <point x="138" y="633" type="line"/>
      <point x="144" y="668" type="line"/>
      <point x="279" y="699" type="line"/>
      <point x="204" y="274" type="line"/>
      <point x="171" y="274" type="line"/>
      <point x="239" y="659" type="line"/>
    </contour>
    <contour>
      <point x="481" y="134" type="curve" smooth="yes"/>
      <point x="470" y="69"/>
      <point x="506" y="22"/>
      <point x="568" y="22" type="curve" smooth="yes"/>
      <point x="630" y="22"/>
      <point x="683" y="69"/>
      <point x="694" y="134" type="curve" smooth="yes"/>
      <point x="705" y="197"/>
      <point x="668" y="243"/>
      <point x="610" y="243" type="curve" smooth="yes"/>
      <point x="544" y="243"/>
      <point x="492" y="194"/>
    </contour>
    <contour>
      <point x="668" y="418" type="line"/>
      <point x="710" y="418" type="line"/>
      <point x="539" y="231" type="line"/>
      <point x="537" y="233" type="line"/>
      <point x="561" y="257"/>
      <point x="591" y="267"/>
      <point x="625" y="267" type="curve" smooth="yes"/>
      <point x="693" y="267"/>
      <point x="739" y="209"/>
      <point x="726" y="134" type="curve" smooth="yes"/>
      <point x="711" y="50"/>
      <point x="644" y="-8"/>
      <point x="563" y="-8" type="curve" smooth="yes"/>
      <point x="482" y="-8"/>
      <point x="435" y="50"/>
      <point x="450" y="134" type="curve" smooth="yes"/>
      <point x="456" y="168"/>
      <point x="474" y="202"/>
      <point x="494" y="224" type="curve" smooth="yes"/>
    </contour>
  </outline>
</glyph>
<glyph name="fiveeighths" format="1">
  <advance width="882"/>
  <unicode hex="215D"/>
  <outline>
    <contour>
      <point x="834" y="700" type="line"/>
      <point x="878" y="700" type="line"/>
      <point x="214" y="0" type="line"/>
      <point x="170" y="0" type="line"/>
    </contour>
    <contour>
      <point x="387" y="416" type="curve" smooth="yes"/>
      <point x="370" y="321"/>
      <point x="298" y="272"/>
      <point x="219" y="272" type="curve" smooth="yes"/>
      <point x="147" y="272"/>
      <point x="112" y="310"/>
      <point x="95" y="360" type="curve"/>
      <point x="127" y="379" type="line"/>
      <point x="139" y="336"/>
      <point x="171" y="303"/>
      <point x="224" y="303" type="curve" smooth="yes"/>
      <point x="289" y="303"/>
      <point x="339" y="345"/>
      <point x="352" y="416" type="curve" smooth="yes"/>
      <point x="363" y="480"/>
      <point x="328" y="523"/>
      <point x="270" y="523" type="curve" smooth="yes"/>
      <point x="225" y="523"/>
      <point x="192" y="509"/>
      <point x="148" y="474" type="curve"/>
      <point x="175" y="506" type="line"/>
      <point x="204" y="535"/>
      <point x="247" y="553"/>
      <point x="289" y="553" type="curve" smooth="yes"/>
      <point x="359" y="553"/>
      <point x="401" y="497"/>
    </contour>
    <contour>
      <point x="262" y="669" type="line"/>
      <point x="197" y="514" type="line"/>
      <point x="148" y="474" type="line"/>
      <point x="242" y="698" type="line"/>
      <point x="440" y="698" type="line"/>
      <point x="435" y="669" type="line"/>
    </contour>
    <contour>
      <point x="663" y="321" type="curve" smooth="yes"/>
      <point x="673" y="378"/>
      <point x="728" y="426"/>
      <point x="792" y="426" type="curve" smooth="yes"/>
      <point x="856" y="426"/>
      <point x="895" y="378"/>
      <point x="885" y="321" type="curve" smooth="yes"/>
      <point x="874" y="258"/>
      <point x="817" y="216"/>
      <point x="755" y="216" type="curve" smooth="yes"/>
      <point x="693" y="216"/>
      <point x="652" y="258"/>
    </contour>
    <contour>
      <point x="694" y="318" type="curve" smooth="yes"/>
      <point x="686" y="271"/>
      <point x="721" y="238"/>
      <point x="759" y="238" type="curve" smooth="yes"/>
      <point x="797" y="238"/>
      <point x="844" y="271"/>
      <point x="852" y="318" type="curve" smooth="yes"/>
      <point x="860" y="363"/>
      <point x="833" y="397"/>
      <point x="787" y="397" type="curve" smooth="yes"/>
      <point x="741" y="397"/>
      <point x="702" y="363"/>
    </contour>
    <contour>
      <point x="612" y="113" type="curve" smooth="yes"/>
      <point x="625" y="185"/>
      <point x="693" y="230"/>
      <point x="758" y="230" type="curve" smooth="yes"/>
      <point x="823" y="230"/>
      <point x="875" y="185"/>
      <point x="862" y="113" type="curve" smooth="yes"/>
      <point x="851" y="48"/>
      <point x="791" y="-6"/>
      <point x="716" y="-6" type="curve" smooth="yes"/>
      <point x="641" y="-6"/>
      <point x="601" y="48"/>
    </contour>
    <contour>
      <point x="644" y="116" type="curve" smooth="yes"/>
      <point x="634" y="59"/>
      <point x="668" y="23"/>
      <point x="721" y="23" type="curve" smooth="yes"/>
      <point x="774" y="23"/>
      <point x="820" y="59"/>
      <point x="830" y="116" type="curve" smooth="yes"/>
      <point x="839" y="169"/>
      <point x="801" y="208"/>
      <point x="754" y="208" type="curve" smooth="yes"/>
      <point x="707" y="208"/>
      <point x="653" y="169"/>
    </contour>
  </outline>
</glyph>
<glyph name="uniFF16" format="1">
  <advance width="568"/>
  <unicode hex="FF16"/>
  <outline>
    <contour>
      <point x="147" y="226" type="curve" smooth="yes"/>
      <point x="128" y="118"/>
      <point x="187" y="40"/>
      <point x="291" y="40" type="curve" smooth="yes"/>
      <point x="395" y="40"/>
      <point x="482" y="118"/>
      <point x="501" y="226" type="curve" smooth="yes"/>
      <point x="519" y="330"/>
      <point x="456" y="408"/>
      <point x="360" y="408" type="curve" smooth="yes"/>
      <point x="250" y="408"/>
      <point x="165" y="326"/>
    </contour>
    <contour>
      <point x="457" y="700" type="line"/>
      <point x="526" y="700" type="line"/>
      <point x="244" y="389" type="line"/>
      <point x="240" y="392" type="line"/>
      <point x="280" y="433"/>
      <point x="329" y="449"/>
      <point x="386" y="449" type="curve" smooth="yes"/>
      <point x="500" y="449"/>
      <point x="576" y="351"/>
      <point x="554" y="226" type="curve" smooth="yes"/>
      <point x="529" y="86"/>
      <point x="417" y="-10"/>
      <point x="282" y="-10" type="curve" smooth="yes"/>
      <point x="147" y="-10"/>
      <point x="69" y="86"/>
      <point x="94" y="226" type="curve" smooth="yes"/>
      <point x="104" y="283"/>
      <point x="135" y="340"/>
      <point x="169" y="377" type="curve" smooth="yes"/>
    </contour>
  </outline>
</glyph>
<glyph name="adieresis.alt" format="1">
  <advance width="558"/>
  <outline>
    <contour>
      <point x="516" y="460" type="line"/>
      <point x="565" y="460" type="line"/>
      <point x="484" y="0" type="line"/>
      <point x="435" y="0" type="line"/>
    </contour>
    <contour>
      <point x="80" y="230" type="curve" smooth="yes"/>
      <point x="106" y="378"/>
      <point x="221" y="470"/>
      <point x="344" y="470" type="curve" smooth="yes"/>
      <point x="462" y="470"/>
      <point x="521" y="367"/>
      <point x="497" y="230" type="curve" smooth="yes"/>
      <point x="473" y="93"/>
      <point x="377" y="-10"/>
      <point x="259" y="-10" type="curve" smooth="yes"/>
      <point x="136" y="-10"/>
      <point x="54" y="82"/>
    </contour>
    <contour>
      <point x="133" y="230" type="curve" smooth="yes"/>
      <point x="112" y="110"/>
      <point x="178" y="39"/>
      <point x="275" y="39" type="curve" smooth="yes"/>
      <point x="361" y="39"/>
      <point x="454" y="120"/>
      <point x="473" y="230" type="curve" smooth="yes"/>
      <point x="492" y="340"/>
      <point x="428" y="421"/>
      <point x="342" y="421" type="curve" smooth="yes"/>
      <point x="245" y="421"/>
      <point x="154" y="350"/>
    </contour>
    <contour>
      <point x="444" y="587" type="curve" smooth="yes"/>
      <point x="448" y="608"/>
      <point x="467" y="625"/>
      <point x="487" y="625" type="curve" smooth="yes"/>
      <point x="507" y="625"/>
      <point x="522" y="608"/>
      <point x="518" y="587" type="curve" smooth="yes"/>
      <point x="514" y="566"/>
      <point x="494" y="550"/>
      <point x="474" y="550" type="curve" smooth="yes"/>
      <point x="454" y="550"/>
      <point x="440" y="566"/>
    </contour>
    <contour>
      <point x="244" y="587" type="curve" smooth="yes"/>
      <point x="248" y="608"/>
      <point x="267" y="625"/>
      <point x="287" y="625" type="curve" smooth="yes"/>
      <point x="307" y="625"/>
      <point x="322" y="608"/>
      <point x="318" y="587" type="curve" smooth="yes"/>
      <point x="314" y="566"/>
      <point x="294" y="550"/>
      <point x="274" y="550" type="curve" smooth="yes"/>
      <point x="254" y="550"/>
      <point x="240" y="566"/>
    </contour>
  </outline>
</glyph>
<glyph name="aogonek.alt" format="1">
  <advance width="557"/>
  <outline>
    <contour>
      <point x="516" y="460" type="line"/>
      <point x="565" y="460" type="line"/>
      <point x="484" y="0" type="line"/>
      <point x="435" y="0" type="line"/>
    </contour>
    <contour>
      <point x="80" y="230" type="curve" smooth="yes"/>
      <point x="106" y="378"/>
      <point x="221" y="470"/>
      <point x="344" y="470" type="curve" smooth="yes"/>
      <point x="462" y="470"/>
      <point x="521" y="367"/>
      <point x="497" y="230" type="curve" smooth="yes"/>
      <point x="473" y="93"/>
      <point x="377" y="-10"/>
      <point x="259" y="-10" type="curve" smooth="yes"/>
      <point x="136" y="-10"/>
      <point x="54" y="82"/>
    </contour>
    <contour>
      <point x="133" y="230" type="curve" smooth="yes"/>
      <point x="112" y="110"/>
      <point x="178" y="39"/>
      <point x="275" y="39" type="curve" smooth="yes"/>
      <point x="361" y="39"/>
      <point x="454" y="120"/>
      <point x="473" y="230" type="curve" smooth="yes"/>
      <point x="492" y="340"/>
      <point x="428" y="421"/>
      <point x="342" y="421" type="curve" smooth="yes"/>
      <point x="245" y="421"/>
      <point x="154" y="350"/>
    </contour>
    <contour>
      <point x="475" y="-147" type="curve"/>
      <point x="492" y="-180" type="line"/>
      <point x="473" y="-200"/>
      <point x="436" y="-220"/>
      <point x="393" y="-220" type="curve" smooth="yes"/>
      <point x="317" y="-220"/>
      <point x="284" y="-183"/>
      <point x="294" y="-128" type="curve"/>
      <point x="349" y="-116" type="line"/>
      <point x="342" y="-156"/>
      <point x="366" y="-174"/>
      <point x="404" y="-174" type="curve" smooth="yes"/>
      <point x="436" y="-174"/>
      <point x="458" y="-162"/>
    </contour>
    <contour>
      <point x="349" y="-116" type="curve"/>
      <point x="294" y="-128" type="line"/>
      <point x="305" y="-65"/>
      <point x="384" y="-17"/>
      <point x="460" y="19" type="curve"/>
      <point x="484" y="0" type="line"/>
      <point x="421" y="-26"/>
      <point x="357" y="-71"/>
    </contour>
  </outline>
</glyph>
